<?xml version="1.0" encoding="UTF-8"?>
<svg id="Calque_1" data-name="Calque 1" xmlns="http://www.w3.org/2000/svg" viewBox="0 0 549.61 559.29">
  <defs>
    <style>
      .cls-1 {
        fill: #fff;
      }
    </style>
  </defs>
  <path class="cls-1" d="M103.61,273.7c1.87-12,15.98-27.62,27.46-31.54,33.24-11.34,52.28,7.73,73.04,30.02,15.52-14.35,29.07-31.41,45.95-44.03,4.25-1.95,8.64-.71,12.5,1.59l33.1,34c.35,3.53-8.36,9.41-10.55,12.43l-30-29.96-52.51,52.47c-4.91,7.01-4.04,19.22,1.01,26l51.98,51.49c3.49-4.39,8.07-9.49,11.99-13.52,8.07-8.28,38.47-35.62,41.34-43.66,2.67-7.48,1.38-16.48-4.81-21.79l-40,39.97c-6.25,4.59-12.48,4.17-18.52-.47-11.11-8.54-21.35-23.41-32.52-32.51-1.01-2.23,9.86-12.26,11.9-11.91l30.11,28.87c19.16-18.13,36.79-37.98,56.01-56.03,20.19-18.95,41.67-36.31,71.4-21.34,35.24,17.74,21.22,64.66,24.28,96.23l28.27,12.22c10.19-20.2,43.34-15.14,46.48,7.52,4.91,35.46-46.97,40.31-49.9,4.9l-27.03-11.02-35.52,35.52c11.71,23.09-22.76,41.51-34,18.05-3.29-6.87-2.63-9.81-.92-17.01l-33.12-34.1-2.98,1.02-32.97,34.02c-5.81,5.2-12.62,5.68-18.97,1.02l-37.01-36.97-45.07,44.98c16.1,23.2-12.07,52.13-34.93,35-18.64-13.97-10.2-44.33,13.97-45.05,10.66-.32,7.75,3.07,17.06-4.92,13.67-11.73,25.88-27.42,39.46-39.53-18.9-15.14-23.47-41.76-8.11-61.18l-.3-1.29c-14.66-14.03-26.53-33.66-50.25-25.21-18,6.41-19.52,18.56-20.35,35.65-.9,18.42.93,37.65.08,56.08-.23,4.95-1.88,10.2-1.04,15.46h-17c-.27-.73,1-1.2,1-1.5v-35l-1.5-1.5h-28c-4.42,7.75-6.95,12.96-15.95,16.05-23.78,8.16-43.86-20.05-27.52-39.52,12.97-15.45,38.77-9.3,42.97,10.47h28.5l1.5-1.5c1.32-11.91-1.78-27.58,0-39ZM353.35,256.44c-15.22,2.43-25.53,17.34-35.64,27.4,14.53,19.24,11.28,45.5-7.09,60.86,5.18,4.03,33.32,35.3,36.4,35.43,2.63.11,6.92-1.35,10.54-.39l32.07-33.09c-3.19-20.68.78-43.33-.99-63.98-1.46-17.03-18.75-28.86-35.3-26.22Z"/>
  <path class="cls-1" d="M354.43,158.47c45.85-2.73,49.86,65.36,6.67,69.72-48.65,4.91-53.21-66.95-6.67-69.72Z"/>
  <path class="cls-1" d="M150.41,158.45c44.19-3.46,50.26,65.35,6.69,69.74-47.64,4.8-52.28-66.17-6.69-69.74Z"/>
</svg>